<?xml version="1.0" standalone="no"?>
<!DOCTYPE svg PUBLIC "-//W3C//DTD SVG 20010904//EN"
 "http://www.w3.org/TR/2001/REC-SVG-20010904/DTD/svg10.dtd">
<svg version="1.0" xmlns="http://www.w3.org/2000/svg"
 width="480.000000pt" height="480.000000pt" viewBox="0 0 480.000000 480.000000"
 preserveAspectRatio="xMidYMid meet">

<g transform="translate(0.000000,480.000000) scale(0.100000,-0.100000)"
fill="#000000" stroke="none">
<path d="M2249 3250 c-234 -29 -422 -137 -501 -286 -78 -146 -77 -351 4 -476
76 -119 208 -195 483 -278 282 -85 343 -127 304 -213 -22 -49 -63 -62 -194
-61 -99 1 -136 6 -209 28 -104 31 -209 78 -289 129 -32 21 -60 37 -62 37 -3 0
-43 -77 -91 -171 -98 -198 -100 -179 21 -248 100 -58 192 -94 322 -128 101
-26 121 -28 308 -28 227 0 280 9 423 76 58 27 101 56 146 99 111 106 151 209
144 374 -3 88 -8 110 -35 169 -39 81 -108 152 -198 202 -86 48 -154 74 -340
129 -174 52 -243 82 -274 122 -30 38 -26 71 12 109 26 26 44 34 88 40 103 12
266 -28 461 -115 l107 -48 35 61 c39 72 146 284 146 292 0 11 -169 89 -263
120 -173 58 -397 84 -548 65z"/>
</g>
</svg>
